<?xml version="1.0" encoding="utf-8"?>
<svg viewBox="53.909 130.493 392.267 216.677" xmlns="http://www.w3.org/2000/svg">
  <rect style="paint-order: fill; stroke: rgb(0, 0, 0);" x="60.662" y="138.587" width="378.126" height="201.108" rx="12" ry="12" transform="matrix(0.9999999999999999, 0, 0, 0.9999999999999999, 3.552713678800501e-15, 2.842170943040401e-14)"/>
  <rect style="stroke: rgb(0, 0, 0); fill: rgb(254, 255, 244);" x="66.948" y="144.354" width="366.463" height="189.724" rx="10" ry="10" transform="matrix(0.9999999999999999, 0, 0, 0.9999999999999999, 3.552713678800501e-15, 2.842170943040401e-14)"/>
  <rect style="stroke: rgb(0, 0, 0); fill-opacity: 0.14; fill: rgb(218, 85, 207); stroke-width: 2px;" x="133.199" y="210.82" width="231.945" height="58.398" rx="8" ry="8" transform="matrix(0.9999999999999999, 0, 0, 0.9999999999999999, 3.552713678800501e-15, 2.842170943040401e-14)"/>
  <ellipse style="stroke: rgb(0, 0, 0); fill: rgb(255, 255, 255); stroke-width: 2px;" cx="178.037" cy="239.525" rx="24.946" ry="23.477" transform="matrix(0.9999999999999999, 0, 0, 0.9999999999999999, 3.552713678800501e-15, 2.842170943040401e-14)"/>
  <ellipse style="fill: rgb(216, 216, 216); stroke: rgb(0, 0, 0);" cx="178.329" cy="239.463" rx="20.379" ry="19.224" transform="matrix(0.9999999999999999, 0, 0, 0.9999999999999999, 3.552713678800501e-15, 2.842170943040401e-14)"/>
  <path style="fill: rgb(216, 216, 216); stroke: rgb(0, 0, 0); stroke-width: 2px;" d="M 213.961 239.477 L 284.484 239.721" transform="matrix(0.9999999999999999, 0, 0, 0.9999999999999999, 3.552713678800501e-15, 2.842170943040401e-14)"/>
  <path style="fill: rgb(216, 216, 216); stroke: rgb(0, 0, 0); stroke-width: 2px;" d="M 213.274 253.364 L 213.829 225.524" transform="matrix(0.9999999999999999, 0, 0, 0.9999999999999999, 3.552713678800501e-15, 2.842170943040401e-14)"/>
  <path style="fill: rgb(216, 216, 216); stroke: rgb(0, 0, 0);" d="M 231.913 246.852 L 232.336 232.285" transform="matrix(0.9999999999999999, 0, 0, 0.9999999999999999, 3.552713678800501e-15, 2.842170943040401e-14)"/>
  <path style="fill: rgb(216, 216, 216); stroke: rgb(0, 0, 0);" d="M 251.139 255.93 L 251.073 223.047" transform="matrix(0.9999999999999999, 0, 0, 0.9999999999999999, 3.552713678800501e-15, 2.842170943040401e-14)"/>
  <path style="fill: rgb(216, 216, 216); stroke: rgb(0, 0, 0);" d="M 267.145 248.634 L 267.079 230.139" transform="matrix(0.9999999999999999, 0, 0, 0.9999999999999999, 3.552713678800501e-15, 2.842170943040401e-14)"/>
  <path style="fill: rgb(216, 216, 216); stroke: rgb(0, 0, 0); stroke-width: 2px;" d="M 285.007 254.517 L 284.702 223.991" transform="matrix(0.9999999999999999, 0, 0, 0.9999999999999999, 3.552713678800501e-15, 2.842170943040401e-14)"/>
  <rect x="116.809" y="217.034" width="6.543" height="5.913" style="stroke: rgb(0, 0, 0); fill: rgb(80, 80, 80); transform-origin: 120.081px 219.99px;" transform="matrix(-0.707106113434, 0.707108020782, -0.707108020782, -0.707106113434, 66.920446135736, 11.358743692724)"/>
  <rect x="116.809" y="217.034" width="6.543" height="5.913" style="stroke: rgb(0, 0, 0); fill: rgb(80, 80, 80); transform-origin: 120.081px 219.99px;" transform="matrix(-0.707106113434, 0.707108020782, -0.707108020782, -0.707106113434, 49.765111663078, 27.412271524756)"/>
  <rect x="116.809" y="217.034" width="6.543" height="5.913" style="stroke: rgb(0, 0, 0); fill: rgb(80, 80, 80); transform-origin: 120.081px 219.99px;" transform="matrix(0.707108020782, 0.707106113434, -0.707106113434, 0.707108020782, 50.082907402626, 11.225058516575)"/>
  <rect x="116.809" y="217.034" width="6.543" height="5.913" style="stroke: rgb(0, 0, 0); fill: rgb(80, 80, 80); transform-origin: 120.081px 219.99px;" transform="matrix(0.707108020782, 0.707106113434, -0.707106113434, 0.707108020782, 66.219473564736, 27.41398282916)"/>
  <ellipse style="stroke: rgb(0, 0, 0); fill: rgb(255, 255, 255); stroke-width: 2px;" cx="321.512" cy="239.321" rx="24.946" ry="23.477" transform="matrix(0.9999999999999999, 0, 0, 0.9999999999999999, 3.552713678800501e-15, 2.842170943040401e-14)"/>
  <ellipse style="fill: rgb(216, 216, 216); stroke: rgb(0, 0, 0);" cx="321.804" cy="239.259" rx="20.379" ry="19.224" transform="matrix(0.9999999999999999, 0, 0, 0.9999999999999999, 3.552713678800501e-15, 2.842170943040401e-14)"/>
  <rect x="116.809" y="217.034" width="6.543" height="5.913" style="stroke: rgb(0, 0, 0); fill: rgb(80, 80, 80); transform-origin: 120.081px 219.99px;" transform="matrix(-0.707106113434, 0.707108020782, -0.707108020782, -0.707106113434, 210.396306731438, 11.154001261084)"/>
  <rect x="116.809" y="217.034" width="6.543" height="5.913" style="stroke: rgb(0, 0, 0); fill: rgb(80, 80, 80); transform-origin: 120.081px 219.99px;" transform="matrix(-0.707106113434, 0.707108020782, -0.707108020782, -0.707106113434, 193.240885175256, 27.20747884757)"/>
  <rect x="116.809" y="217.034" width="6.543" height="5.913" style="stroke: rgb(0, 0, 0); fill: rgb(80, 80, 80); transform-origin: 120.081px 219.99px;" transform="matrix(0.707108020782, 0.707106113434, -0.707106113434, 0.707108020782, 193.558706963179, 11.020155867653)"/>
  <rect x="116.809" y="217.034" width="6.543" height="5.913" style="stroke: rgb(0, 0, 0); fill: rgb(80, 80, 80); transform-origin: 120.081px 219.99px;" transform="matrix(0.707108020782, 0.707106113434, -0.707106113434, 0.707108020782, 209.695273125279, 27.209081610775)"/>
  <path style="fill: rgb(252, 249, 249); stroke: rgb(212, 212, 212);" d="M 111.739 169.671 L 390.818 169.803" transform="matrix(0.9999999999999999, 0, 0, 0.9999999999999999, 3.552713678800501e-15, 2.842170943040401e-14)"/>
  <path style="fill: rgb(252, 249, 249); stroke: rgb(212, 212, 212);" d="M 112.479 189.369 L 389.872 190.048" transform="matrix(0.9999999999999999, 0, 0, 0.9999999999999999, 3.552713678800501e-15, 2.842170943040401e-14)"/>
  <text style="fill: rgb(51, 51, 51); font-family: Arial, sans-serif; font-size: 13px; font-style: italic; white-space: pre;" transform="matrix(0.9999999999999999, 0, 0, 0.9999999999999999, 22.533048629760742, 2.0753479003906534)"><tspan x="333.307" y="184.469">2023</tspan><tspan x="333.307" dy="1em">​</tspan></text>
  <text style="fill: rgb(51, 51, 51); font-family: Arial, sans-serif; font-size: 24px; font-weight: 700; white-space: pre;" x="197.614" y="308.232" transform="matrix(0.9999999999999999, 0, 0, 0.9999999999999999, 3.552713678800501e-15, 2.842170943040401e-14)">Levyraati</text>
  <rect x="366.108" y="220.946" width="66.965" height="8.81" style="stroke: rgb(0, 0, 0); stroke-dashoffset: 2px; stroke-miterlimit: 7.94; stroke-dasharray: 0, 1; fill: rgb(255, 112, 136);" transform="matrix(0.9999999999999999, 0, 0, 0.9999999999999999, 3.552713678800501e-15, 2.842170943040401e-14)"/>
  <rect x="366.155" y="229.35" width="66.909" height="7.991" style="stroke: rgb(0, 0, 0); stroke-dashoffset: 2px; stroke-miterlimit: 7.94; stroke-dasharray: 0, 1; fill: rgb(249, 161, 19);" transform="matrix(0.9999999999999999, 0, 0, 0.9999999999999999, 3.552713678800501e-15, 2.842170943040401e-14)"/>
  <rect x="366.238" y="237.326" width="66.748" height="7.991" style="stroke: rgb(0, 0, 0); stroke-dashoffset: 2px; stroke-miterlimit: 7.94; stroke-dasharray: 0, 1; fill: rgb(255, 243, 108);" transform="matrix(0.9999999999999999, 0, 0, 0.9999999999999999, 3.552713678800501e-15, 2.842170943040401e-14)"/>
  <rect x="366.215" y="244.947" width="66.764" height="7.991" style="stroke: rgb(0, 0, 0); stroke-dashoffset: 2px; stroke-miterlimit: 7.94; stroke-dasharray: 0, 1; fill: rgb(82, 245, 120);" transform="matrix(0.9999999999999999, 0, 0, 0.9999999999999999, 3.552713678800501e-15, 2.842170943040401e-14)"/>
  <rect x="366.11" y="252.731" width="66.795" height="7.991" style="stroke: rgb(0, 0, 0); stroke-dashoffset: 2px; stroke-miterlimit: 7.94; stroke-dasharray: 0, 1; fill: rgb(102, 152, 233);" transform="matrix(0.9999999999999999, 0, 0, 0.9999999999999999, 3.552713678800501e-15, 2.842170943040401e-14)"/>
  <rect x="67.428" y="220.951" width="64.792" height="8.81" style="stroke: rgb(0, 0, 0); stroke-dashoffset: 2px; stroke-miterlimit: 7.94; stroke-dasharray: 0, 1; fill: rgb(255, 112, 136);" transform="matrix(0.9999999999999999, 0, 0, 0.9999999999999999, 3.552713678800501e-15, 2.842170943040401e-14)"/>
  <rect x="67.454" y="229.656" width="64.735" height="7.991" style="stroke: rgb(0, 0, 0); stroke-dashoffset: 2px; stroke-miterlimit: 7.94; stroke-dasharray: 0, 1; fill: rgb(249, 161, 19);" transform="matrix(0.9999999999999999, 0, 0, 0.9999999999999999, 3.552713678800501e-15, 2.842170943040401e-14)"/>
  <rect x="67.55" y="237.632" width="64.638" height="7.991" style="stroke: rgb(0, 0, 0); stroke-dashoffset: 2px; stroke-miterlimit: 7.94; stroke-dasharray: 0, 1; fill: rgb(255, 243, 108);" transform="matrix(0.9999999999999999, 0, 0, 0.9999999999999999, 3.552713678800501e-15, 2.842170943040401e-14)"/>
  <rect x="67.437" y="253.037" width="64.773" height="7.991" style="stroke: rgb(0, 0, 0); stroke-dashoffset: 2px; stroke-miterlimit: 7.94; stroke-dasharray: 0, 1; fill: rgb(102, 152, 233);" transform="matrix(0.9999999999999999, 0, 0, 0.9999999999999999, 3.552713678800501e-15, 2.842170943040401e-14)"/>
  <rect x="67.479" y="245.25" width="64.709" height="7.991" style="stroke: rgb(0, 0, 0); stroke-dashoffset: 2px; stroke-miterlimit: 7.94; stroke-dasharray: 0, 1; fill: rgb(82, 245, 120);" transform="matrix(0.9999999999999999, 0, 0, 0.9999999999999999, 3.552713678800501e-15, 2.842170943040401e-14)"/>
</svg>
